<mxfile host="app.diagrams.net" modified="2022-03-27T05:14:31.136Z" agent="5.0 (Windows)" etag="0hEHD5-fjNuu70inxOnf" version="17.2.4" type="github" pages="3">
  <diagram id="R_V933T2gNeEZrDt9Xle" name="Page-1">
    <mxGraphModel dx="1360" dy="792" grid="1" gridSize="10" guides="1" tooltips="1" connect="1" arrows="1" fold="1" page="1" pageScale="1" pageWidth="827" pageHeight="1169" math="0" shadow="0">
      <root>
        <mxCell id="0" />
        <mxCell id="1" parent="0" />
        <mxCell id="ISLUeYj_r8RpM6xw_Ebs-1" value="Operator" style="shape=umlActor;verticalLabelPosition=bottom;verticalAlign=top;html=1;outlineConnect=0;" parent="1" vertex="1">
          <mxGeometry x="120" y="60" width="30" height="60" as="geometry" />
        </mxCell>
        <mxCell id="ISLUeYj_r8RpM6xw_Ebs-3" value="Desktop" style="rounded=0;whiteSpace=wrap;html=1;" parent="1" vertex="1">
          <mxGeometry x="250" y="55" width="70" height="35" as="geometry" />
        </mxCell>
        <mxCell id="ISLUeYj_r8RpM6xw_Ebs-10" value="Operator" style="shape=umlActor;verticalLabelPosition=bottom;verticalAlign=top;html=1;outlineConnect=0;" parent="1" vertex="1">
          <mxGeometry x="120" y="325" width="30" height="60" as="geometry" />
        </mxCell>
        <mxCell id="ISLUeYj_r8RpM6xw_Ebs-11" value="RaspberryPi" style="rounded=0;whiteSpace=wrap;html=1;" parent="1" vertex="1">
          <mxGeometry x="250" y="325" width="70" height="35" as="geometry" />
        </mxCell>
        <mxCell id="ISLUeYj_r8RpM6xw_Ebs-13" value="" style="endArrow=none;dashed=1;html=1;rounded=0;" parent="1" edge="1">
          <mxGeometry width="50" height="50" relative="1" as="geometry">
            <mxPoint x="135" y="260" as="sourcePoint" />
            <mxPoint x="135" y="140" as="targetPoint" />
          </mxGeometry>
        </mxCell>
        <mxCell id="ISLUeYj_r8RpM6xw_Ebs-14" value="" style="endArrow=none;dashed=1;html=1;rounded=0;entryX=0.5;entryY=1;entryDx=0;entryDy=0;startArrow=none;" parent="1" source="ISLUeYj_r8RpM6xw_Ebs-15" target="ISLUeYj_r8RpM6xw_Ebs-3" edge="1">
          <mxGeometry width="50" height="50" relative="1" as="geometry">
            <mxPoint x="285" y="260" as="sourcePoint" />
            <mxPoint x="284.77" y="110.00000000000006" as="targetPoint" />
          </mxGeometry>
        </mxCell>
        <mxCell id="ISLUeYj_r8RpM6xw_Ebs-15" value="" style="rounded=0;whiteSpace=wrap;html=1;" parent="1" vertex="1">
          <mxGeometry x="275" y="150" width="20" height="60" as="geometry" />
        </mxCell>
        <mxCell id="ISLUeYj_r8RpM6xw_Ebs-16" value="" style="endArrow=none;dashed=1;html=1;rounded=0;entryX=0.5;entryY=1;entryDx=0;entryDy=0;" parent="1" target="ISLUeYj_r8RpM6xw_Ebs-15" edge="1">
          <mxGeometry width="50" height="50" relative="1" as="geometry">
            <mxPoint x="285" y="260" as="sourcePoint" />
            <mxPoint x="285" y="90" as="targetPoint" />
          </mxGeometry>
        </mxCell>
        <mxCell id="ISLUeYj_r8RpM6xw_Ebs-17" value="" style="endArrow=classic;html=1;rounded=0;entryX=0;entryY=0;entryDx=0;entryDy=0;" parent="1" target="ISLUeYj_r8RpM6xw_Ebs-15" edge="1">
          <mxGeometry width="50" height="50" relative="1" as="geometry">
            <mxPoint x="135" y="150" as="sourcePoint" />
            <mxPoint x="280" y="150" as="targetPoint" />
          </mxGeometry>
        </mxCell>
        <mxCell id="ISLUeYj_r8RpM6xw_Ebs-18" value="" style="endArrow=none;html=1;rounded=0;entryX=0;entryY=0;entryDx=0;entryDy=0;startArrow=classic;startFill=1;endFill=0;" parent="1" edge="1">
          <mxGeometry width="50" height="50" relative="1" as="geometry">
            <mxPoint x="135" y="210" as="sourcePoint" />
            <mxPoint x="275" y="210" as="targetPoint" />
          </mxGeometry>
        </mxCell>
      </root>
    </mxGraphModel>
  </diagram>
  <diagram id="AMbZFRgQV7VVkBoFiMln" name="Page-2">
    <mxGraphModel dx="669" dy="824" grid="1" gridSize="10" guides="1" tooltips="1" connect="1" arrows="1" fold="1" page="1" pageScale="1" pageWidth="827" pageHeight="1169" math="0" shadow="0">
      <root>
        <mxCell id="0" />
        <mxCell id="1" parent="0" />
        <mxCell id="bqHZuYSxh4LOir-MjUal-4" value="" style="endArrow=classic;html=1;rounded=0;entryX=0;entryY=0.5;entryDx=0;entryDy=0;" parent="1" target="bqHZuYSxh4LOir-MjUal-3" edge="1">
          <mxGeometry width="50" height="50" relative="1" as="geometry">
            <mxPoint x="160" y="240" as="sourcePoint" />
            <mxPoint x="515" y="240" as="targetPoint" />
          </mxGeometry>
        </mxCell>
        <mxCell id="bqHZuYSxh4LOir-MjUal-5" value="Desktop()" style="edgeLabel;html=1;align=center;verticalAlign=middle;resizable=0;points=[];" parent="bqHZuYSxh4LOir-MjUal-4" vertex="1" connectable="0">
          <mxGeometry x="-0.1444" y="-2" relative="1" as="geometry">
            <mxPoint x="20" y="-12" as="offset" />
          </mxGeometry>
        </mxCell>
        <mxCell id="bqHZuYSxh4LOir-MjUal-6" value="" style="endArrow=classic;html=1;rounded=0;entryX=0;entryY=0;entryDx=0;entryDy=0;" parent="1" target="bqHZuYSxh4LOir-MjUal-31" edge="1">
          <mxGeometry width="50" height="50" relative="1" as="geometry">
            <mxPoint x="160" y="360" as="sourcePoint" />
            <mxPoint x="770" y="360" as="targetPoint" />
          </mxGeometry>
        </mxCell>
        <mxCell id="bqHZuYSxh4LOir-MjUal-7" value="RaspberryPi()" style="edgeLabel;html=1;align=center;verticalAlign=middle;resizable=0;points=[];" parent="bqHZuYSxh4LOir-MjUal-6" vertex="1" connectable="0">
          <mxGeometry x="-0.1444" y="-2" relative="1" as="geometry">
            <mxPoint x="20" y="-12" as="offset" />
          </mxGeometry>
        </mxCell>
        <mxCell id="bqHZuYSxh4LOir-MjUal-8" value="" style="endArrow=classic;html=1;rounded=0;entryX=0;entryY=0.5;entryDx=0;entryDy=0;" parent="1" target="qwqSFgzWt5d_AOfyo66A-3" edge="1">
          <mxGeometry width="50" height="50" relative="1" as="geometry">
            <mxPoint x="160" y="480" as="sourcePoint" />
            <mxPoint x="961" y="480" as="targetPoint" />
          </mxGeometry>
        </mxCell>
        <mxCell id="bqHZuYSxh4LOir-MjUal-9" value="Drone()" style="edgeLabel;html=1;align=center;verticalAlign=middle;resizable=0;points=[];" parent="bqHZuYSxh4LOir-MjUal-8" vertex="1" connectable="0">
          <mxGeometry x="-0.1444" y="-2" relative="1" as="geometry">
            <mxPoint x="20" y="-12" as="offset" />
          </mxGeometry>
        </mxCell>
        <mxCell id="bqHZuYSxh4LOir-MjUal-13" value="" style="endArrow=none;dashed=1;html=1;rounded=0;" parent="1" edge="1">
          <mxGeometry width="50" height="50" relative="1" as="geometry">
            <mxPoint x="160.5" y="1440" as="sourcePoint" />
            <mxPoint x="160" y="180" as="targetPoint" />
          </mxGeometry>
        </mxCell>
        <mxCell id="bqHZuYSxh4LOir-MjUal-14" value="" style="endArrow=none;dashed=1;html=1;rounded=0;startArrow=none;entryX=0.5;entryY=0;entryDx=0;entryDy=0;" parent="1" target="bqHZuYSxh4LOir-MjUal-3" edge="1">
          <mxGeometry width="50" height="50" relative="1" as="geometry">
            <mxPoint x="540" y="1440" as="sourcePoint" />
            <mxPoint x="389.5" y="160" as="targetPoint" />
          </mxGeometry>
        </mxCell>
        <mxCell id="bqHZuYSxh4LOir-MjUal-15" value="" style="endArrow=none;html=1;rounded=0;startArrow=classic;startFill=1;endFill=0;dashed=1;entryX=0;entryY=1;entryDx=0;entryDy=0;" parent="1" target="bqHZuYSxh4LOir-MjUal-26" edge="1">
          <mxGeometry width="50" height="50" relative="1" as="geometry">
            <mxPoint x="160" y="300" as="sourcePoint" />
            <mxPoint x="505" y="290" as="targetPoint" />
          </mxGeometry>
        </mxCell>
        <mxCell id="bqHZuYSxh4LOir-MjUal-17" value="" style="endArrow=none;html=1;rounded=0;endFill=0;startArrow=classic;startFill=1;dashed=1;entryX=0;entryY=1;entryDx=0;entryDy=0;" parent="1" target="bqHZuYSxh4LOir-MjUal-31" edge="1">
          <mxGeometry width="50" height="50" relative="1" as="geometry">
            <mxPoint x="160" y="420" as="sourcePoint" />
            <mxPoint x="770" y="410" as="targetPoint" />
          </mxGeometry>
        </mxCell>
        <mxCell id="bqHZuYSxh4LOir-MjUal-19" value="" style="endArrow=none;html=1;rounded=0;startArrow=classic;startFill=1;endFill=0;dashed=1;entryX=0;entryY=1;entryDx=0;entryDy=0;" parent="1" target="bqHZuYSxh4LOir-MjUal-33" edge="1">
          <mxGeometry width="50" height="50" relative="1" as="geometry">
            <mxPoint x="160" y="540" as="sourcePoint" />
            <mxPoint x="390" y="530" as="targetPoint" />
          </mxGeometry>
        </mxCell>
        <mxCell id="bqHZuYSxh4LOir-MjUal-26" value="" style="rounded=0;whiteSpace=wrap;html=1;" parent="1" vertex="1">
          <mxGeometry x="520" y="240" width="30" height="60" as="geometry" />
        </mxCell>
        <mxCell id="bqHZuYSxh4LOir-MjUal-28" value="" style="endArrow=classic;html=1;rounded=0;entryX=0;entryY=0.5;entryDx=0;entryDy=0;" parent="1" target="qwqSFgzWt5d_AOfyo66A-4" edge="1">
          <mxGeometry width="50" height="50" relative="1" as="geometry">
            <mxPoint x="160" y="590" as="sourcePoint" />
            <mxPoint x="330" y="590" as="targetPoint" />
          </mxGeometry>
        </mxCell>
        <mxCell id="bqHZuYSxh4LOir-MjUal-29" value="Operator()" style="edgeLabel;html=1;align=center;verticalAlign=middle;resizable=0;points=[];" parent="bqHZuYSxh4LOir-MjUal-28" vertex="1" connectable="0">
          <mxGeometry x="-0.1444" y="-2" relative="1" as="geometry">
            <mxPoint x="49" y="-12" as="offset" />
          </mxGeometry>
        </mxCell>
        <mxCell id="bqHZuYSxh4LOir-MjUal-31" value="" style="rounded=0;whiteSpace=wrap;html=1;" parent="1" vertex="1">
          <mxGeometry x="725" y="360" width="30" height="60" as="geometry" />
        </mxCell>
        <mxCell id="bqHZuYSxh4LOir-MjUal-32" value="" style="endArrow=none;dashed=1;html=1;rounded=0;startArrow=none;" parent="1" source="qwqSFgzWt5d_AOfyo66A-71" target="bqHZuYSxh4LOir-MjUal-31" edge="1">
          <mxGeometry width="50" height="50" relative="1" as="geometry">
            <mxPoint x="740" y="1440" as="sourcePoint" />
            <mxPoint x="389.5" y="160" as="targetPoint" />
          </mxGeometry>
        </mxCell>
        <mxCell id="bqHZuYSxh4LOir-MjUal-33" value="" style="rounded=0;whiteSpace=wrap;html=1;" parent="1" vertex="1">
          <mxGeometry x="946" y="480" width="30" height="60" as="geometry" />
        </mxCell>
        <mxCell id="bqHZuYSxh4LOir-MjUal-34" value="" style="endArrow=none;dashed=1;html=1;rounded=0;startArrow=none;" parent="1" target="bqHZuYSxh4LOir-MjUal-33" edge="1">
          <mxGeometry width="50" height="50" relative="1" as="geometry">
            <mxPoint x="960" y="1442" as="sourcePoint" />
            <mxPoint x="389.94642857142856" y="420" as="targetPoint" />
          </mxGeometry>
        </mxCell>
        <mxCell id="bqHZuYSxh4LOir-MjUal-3" value="aceer:Desktop" style="rounded=0;whiteSpace=wrap;html=1;" parent="1" vertex="1">
          <mxGeometry x="475" y="210" width="120" height="60" as="geometry" />
        </mxCell>
        <mxCell id="qwqSFgzWt5d_AOfyo66A-1" value="rp:RaspberryPi" style="rounded=0;whiteSpace=wrap;html=1;" parent="1" vertex="1">
          <mxGeometry x="680" y="330" width="120" height="60" as="geometry" />
        </mxCell>
        <mxCell id="qwqSFgzWt5d_AOfyo66A-3" value="dji:Drone" style="rounded=0;whiteSpace=wrap;html=1;" parent="1" vertex="1">
          <mxGeometry x="901" y="450" width="120" height="60" as="geometry" />
        </mxCell>
        <mxCell id="qwqSFgzWt5d_AOfyo66A-5" value=":TestSignal" style="rounded=0;whiteSpace=wrap;html=1;" parent="1" vertex="1">
          <mxGeometry x="100" y="120" width="120" height="60" as="geometry" />
        </mxCell>
        <mxCell id="qwqSFgzWt5d_AOfyo66A-7" value="" style="endArrow=classic;html=1;rounded=0;exitX=0.982;exitY=0.118;exitDx=0;exitDy=0;exitPerimeter=0;" parent="1" source="bqHZuYSxh4LOir-MjUal-35" edge="1">
          <mxGeometry width="50" height="50" relative="1" as="geometry">
            <mxPoint x="390" y="680" as="sourcePoint" />
            <mxPoint x="520" y="680" as="targetPoint" />
          </mxGeometry>
        </mxCell>
        <mxCell id="qwqSFgzWt5d_AOfyo66A-8" value="wifiControl(aceer)" style="text;html=1;align=center;verticalAlign=middle;resizable=0;points=[];autosize=1;strokeColor=none;fillColor=none;" parent="1" vertex="1">
          <mxGeometry x="400" y="660" width="110" height="20" as="geometry" />
        </mxCell>
        <mxCell id="qwqSFgzWt5d_AOfyo66A-17" value="" style="endArrow=classic;html=1;rounded=0;entryX=0;entryY=0;entryDx=0;entryDy=0;exitX=0.987;exitY=0.431;exitDx=0;exitDy=0;exitPerimeter=0;" parent="1" source="bqHZuYSxh4LOir-MjUal-35" target="qwqSFgzWt5d_AOfyo66A-18" edge="1">
          <mxGeometry width="50" height="50" relative="1" as="geometry">
            <mxPoint x="440" y="940" as="sourcePoint" />
            <mxPoint x="921" y="930" as="targetPoint" />
          </mxGeometry>
        </mxCell>
        <mxCell id="qwqSFgzWt5d_AOfyo66A-18" value="" style="rounded=0;whiteSpace=wrap;html=1;" parent="1" vertex="1">
          <mxGeometry x="946" y="930" width="30" height="70" as="geometry" />
        </mxCell>
        <mxCell id="qwqSFgzWt5d_AOfyo66A-19" value="" style="endArrow=none;html=1;rounded=0;endFill=0;startArrow=classic;startFill=1;dashed=1;" parent="1" edge="1">
          <mxGeometry width="50" height="50" relative="1" as="geometry">
            <mxPoint x="385" y="749.52" as="sourcePoint" />
            <mxPoint x="520" y="750" as="targetPoint" />
          </mxGeometry>
        </mxCell>
        <mxCell id="qwqSFgzWt5d_AOfyo66A-20" value="wifiControl(dji)" style="text;html=1;align=center;verticalAlign=middle;resizable=0;points=[];autosize=1;strokeColor=none;fillColor=none;" parent="1" vertex="1">
          <mxGeometry x="806" y="910" width="90" height="20" as="geometry" />
        </mxCell>
        <mxCell id="qwqSFgzWt5d_AOfyo66A-26" value="" style="endArrow=classic;html=1;rounded=0;entryX=0;entryY=0;entryDx=0;entryDy=0;exitX=1.042;exitY=0.621;exitDx=0;exitDy=0;exitPerimeter=0;" parent="1" source="bqHZuYSxh4LOir-MjUal-35" target="qwqSFgzWt5d_AOfyo66A-27" edge="1">
          <mxGeometry width="50" height="50" relative="1" as="geometry">
            <mxPoint x="530" y="1080" as="sourcePoint" />
            <mxPoint x="700" y="1080" as="targetPoint" />
          </mxGeometry>
        </mxCell>
        <mxCell id="qwqSFgzWt5d_AOfyo66A-28" value="" style="endArrow=none;html=1;rounded=0;endFill=0;startArrow=classic;startFill=1;dashed=1;entryX=0.5;entryY=1;entryDx=0;entryDy=0;exitX=0.991;exitY=0.707;exitDx=0;exitDy=0;exitPerimeter=0;" parent="1" source="bqHZuYSxh4LOir-MjUal-35" target="qwqSFgzWt5d_AOfyo66A-27" edge="1">
          <mxGeometry width="50" height="50" relative="1" as="geometry">
            <mxPoint x="390" y="1150" as="sourcePoint" />
            <mxPoint x="745" y="1160.0000000000002" as="targetPoint" />
          </mxGeometry>
        </mxCell>
        <mxCell id="qwqSFgzWt5d_AOfyo66A-29" value="radioControl(rp)" style="text;html=1;align=center;verticalAlign=middle;resizable=0;points=[];autosize=1;strokeColor=none;fillColor=none;" parent="1" vertex="1">
          <mxGeometry x="540" y="1060" width="100" height="20" as="geometry" />
        </mxCell>
        <mxCell id="qwqSFgzWt5d_AOfyo66A-34" value="" style="endArrow=classic;html=1;rounded=0;entryX=0;entryY=0;entryDx=0;entryDy=0;exitX=1.167;exitY=0.819;exitDx=0;exitDy=0;exitPerimeter=0;" parent="1" source="bqHZuYSxh4LOir-MjUal-35" target="qwqSFgzWt5d_AOfyo66A-35" edge="1">
          <mxGeometry width="50" height="50" relative="1" as="geometry">
            <mxPoint x="751" y="1240.0000000000002" as="sourcePoint" />
            <mxPoint x="921" y="1240" as="targetPoint" />
          </mxGeometry>
        </mxCell>
        <mxCell id="qwqSFgzWt5d_AOfyo66A-35" value="" style="rounded=0;whiteSpace=wrap;html=1;" parent="1" vertex="1">
          <mxGeometry x="946" y="1240" width="30" height="80" as="geometry" />
        </mxCell>
        <mxCell id="qwqSFgzWt5d_AOfyo66A-36" value="" style="endArrow=none;html=1;rounded=0;endFill=0;startArrow=classic;startFill=1;dashed=1;entryX=0;entryY=1;entryDx=0;entryDy=0;exitX=1.073;exitY=0.918;exitDx=0;exitDy=0;exitPerimeter=0;" parent="1" source="bqHZuYSxh4LOir-MjUal-35" edge="1">
          <mxGeometry width="50" height="50" relative="1" as="geometry">
            <mxPoint x="751" y="1320.0000000000002" as="sourcePoint" />
            <mxPoint x="966" y="1320.0000000000002" as="targetPoint" />
          </mxGeometry>
        </mxCell>
        <mxCell id="qwqSFgzWt5d_AOfyo66A-37" value="radioControl(dji)" style="text;html=1;align=center;verticalAlign=middle;resizable=0;points=[];autosize=1;strokeColor=none;fillColor=none;" parent="1" vertex="1">
          <mxGeometry x="801" y="1220" width="100" height="20" as="geometry" />
        </mxCell>
        <mxCell id="bqHZuYSxh4LOir-MjUal-35" value="" style="rounded=0;whiteSpace=wrap;html=1;" parent="1" vertex="1">
          <mxGeometry x="355" y="585" width="30" height="800" as="geometry" />
        </mxCell>
        <mxCell id="qwqSFgzWt5d_AOfyo66A-4" value="op:Operator" style="rounded=0;whiteSpace=wrap;html=1;" parent="1" vertex="1">
          <mxGeometry x="310" y="560" width="120" height="60" as="geometry" />
        </mxCell>
        <mxCell id="qwqSFgzWt5d_AOfyo66A-68" value="" style="rounded=0;whiteSpace=wrap;html=1;" parent="1" vertex="1">
          <mxGeometry x="522" y="680" width="30" height="70" as="geometry" />
        </mxCell>
        <mxCell id="qwqSFgzWt5d_AOfyo66A-69" value="" style="endArrow=classic;html=1;rounded=0;entryX=0;entryY=0;entryDx=0;entryDy=0;" parent="1" target="qwqSFgzWt5d_AOfyo66A-71" edge="1">
          <mxGeometry width="50" height="50" relative="1" as="geometry">
            <mxPoint x="385" y="810" as="sourcePoint" />
            <mxPoint x="720" y="810.95" as="targetPoint" />
          </mxGeometry>
        </mxCell>
        <mxCell id="qwqSFgzWt5d_AOfyo66A-70" value="wifiControl(rp)" style="text;html=1;align=center;verticalAlign=middle;resizable=0;points=[];autosize=1;strokeColor=none;fillColor=none;" parent="1" vertex="1">
          <mxGeometry x="540" y="790" width="90" height="20" as="geometry" />
        </mxCell>
        <mxCell id="qwqSFgzWt5d_AOfyo66A-71" value="" style="rounded=0;whiteSpace=wrap;html=1;" parent="1" vertex="1">
          <mxGeometry x="725" y="810" width="30" height="60" as="geometry" />
        </mxCell>
        <mxCell id="qwqSFgzWt5d_AOfyo66A-72" value="" style="endArrow=none;dashed=1;html=1;rounded=0;startArrow=none;" parent="1" target="qwqSFgzWt5d_AOfyo66A-71" edge="1">
          <mxGeometry width="50" height="50" relative="1" as="geometry">
            <mxPoint x="740" y="1440" as="sourcePoint" />
            <mxPoint x="740" y="420" as="targetPoint" />
          </mxGeometry>
        </mxCell>
        <mxCell id="qwqSFgzWt5d_AOfyo66A-73" value="" style="endArrow=none;html=1;rounded=0;endFill=0;startArrow=classic;startFill=1;dashed=1;entryX=0;entryY=1;entryDx=0;entryDy=0;exitX=0.978;exitY=0.418;exitDx=0;exitDy=0;exitPerimeter=0;" parent="1" target="qwqSFgzWt5d_AOfyo66A-71" edge="1">
          <mxGeometry width="50" height="50" relative="1" as="geometry">
            <mxPoint x="384.34000000000015" y="870.3499999999999" as="sourcePoint" />
            <mxPoint x="715" y="861.4300000000001" as="targetPoint" />
          </mxGeometry>
        </mxCell>
        <mxCell id="qwqSFgzWt5d_AOfyo66A-75" value="" style="endArrow=none;html=1;rounded=0;endFill=0;startArrow=classic;startFill=1;dashed=1;entryX=0;entryY=1;entryDx=0;entryDy=0;" parent="1" target="qwqSFgzWt5d_AOfyo66A-18" edge="1">
          <mxGeometry width="50" height="50" relative="1" as="geometry">
            <mxPoint x="386" y="1000" as="sourcePoint" />
            <mxPoint x="942" y="1000" as="targetPoint" />
            <Array as="points" />
          </mxGeometry>
        </mxCell>
        <mxCell id="qwqSFgzWt5d_AOfyo66A-27" value="" style="rounded=0;whiteSpace=wrap;html=1;" parent="1" vertex="1">
          <mxGeometry x="725" y="1080" width="30" height="70" as="geometry" />
        </mxCell>
        <mxCell id="qwqSFgzWt5d_AOfyo66A-77" value="" style="endArrow=none;dashed=1;html=1;rounded=0;entryX=0.5;entryY=1;entryDx=0;entryDy=0;" parent="1" target="bqHZuYSxh4LOir-MjUal-35" edge="1">
          <mxGeometry width="50" height="50" relative="1" as="geometry">
            <mxPoint x="370" y="1440" as="sourcePoint" />
            <mxPoint x="420" y="1450" as="targetPoint" />
          </mxGeometry>
        </mxCell>
      </root>
    </mxGraphModel>
  </diagram>
  <diagram id="SBIrraM-oSFwhKevkDYo" name="Page-3">
    <mxGraphModel dx="1133" dy="688" grid="1" gridSize="10" guides="1" tooltips="1" connect="1" arrows="1" fold="1" page="1" pageScale="1" pageWidth="827" pageHeight="1169" math="0" shadow="0">
      <root>
        <mxCell id="0" />
        <mxCell id="1" parent="0" />
        <mxCell id="ubbsF_dfWfFlckb89CR2-1" value="Pengunjung" style="shape=umlActor;verticalLabelPosition=bottom;verticalAlign=top;html=1;outlineConnect=0;" parent="1" vertex="1">
          <mxGeometry x="65" y="40" width="30" height="60" as="geometry" />
        </mxCell>
        <mxCell id="ubbsF_dfWfFlckb89CR2-2" value="" style="endArrow=none;dashed=1;html=1;rounded=0;" parent="1" edge="1">
          <mxGeometry width="50" height="50" relative="1" as="geometry">
            <mxPoint x="80" y="740" as="sourcePoint" />
            <mxPoint x="79.5" y="120" as="targetPoint" />
          </mxGeometry>
        </mxCell>
        <mxCell id="mYvr4c-KAgRMB02QzWAA-1" value="System" style="rounded=0;whiteSpace=wrap;html=1;" vertex="1" parent="1">
          <mxGeometry x="280" y="40" width="120" height="60" as="geometry" />
        </mxCell>
        <mxCell id="mYvr4c-KAgRMB02QzWAA-2" value="" style="endArrow=none;dashed=1;html=1;rounded=0;entryX=0.5;entryY=1;entryDx=0;entryDy=0;" edge="1" parent="1" target="mYvr4c-KAgRMB02QzWAA-1">
          <mxGeometry width="50" height="50" relative="1" as="geometry">
            <mxPoint x="340" y="740" as="sourcePoint" />
            <mxPoint x="360" y="110" as="targetPoint" />
          </mxGeometry>
        </mxCell>
        <mxCell id="mYvr4c-KAgRMB02QzWAA-3" value="" style="endArrow=classic;html=1;rounded=0;entryX=0;entryY=0;entryDx=0;entryDy=0;" edge="1" parent="1" target="mYvr4c-KAgRMB02QzWAA-6">
          <mxGeometry width="50" height="50" relative="1" as="geometry">
            <mxPoint x="80" y="160" as="sourcePoint" />
            <mxPoint x="300" y="160" as="targetPoint" />
          </mxGeometry>
        </mxCell>
        <mxCell id="mYvr4c-KAgRMB02QzWAA-4" value="Scan Barcode" style="edgeLabel;html=1;align=center;verticalAlign=middle;resizable=0;points=[];" vertex="1" connectable="0" parent="mYvr4c-KAgRMB02QzWAA-3">
          <mxGeometry x="-0.1077" y="-3" relative="1" as="geometry">
            <mxPoint x="4" y="-3" as="offset" />
          </mxGeometry>
        </mxCell>
        <mxCell id="mYvr4c-KAgRMB02QzWAA-5" value="" style="endArrow=none;html=1;rounded=0;startArrow=classic;startFill=1;" edge="1" parent="1">
          <mxGeometry width="50" height="50" relative="1" as="geometry">
            <mxPoint x="80" y="480" as="sourcePoint" />
            <mxPoint x="325" y="480" as="targetPoint" />
          </mxGeometry>
        </mxCell>
        <mxCell id="Hwy8nERK88tXvUXuoPOE-6" value="Meminta konfirmasi kedatangan" style="edgeLabel;html=1;align=center;verticalAlign=middle;resizable=0;points=[];" vertex="1" connectable="0" parent="mYvr4c-KAgRMB02QzWAA-5">
          <mxGeometry x="-0.0736" relative="1" as="geometry">
            <mxPoint as="offset" />
          </mxGeometry>
        </mxCell>
        <mxCell id="mYvr4c-KAgRMB02QzWAA-7" value="Kamera" style="rounded=0;whiteSpace=wrap;html=1;" vertex="1" parent="1">
          <mxGeometry x="490" y="40" width="120" height="60" as="geometry" />
        </mxCell>
        <mxCell id="mYvr4c-KAgRMB02QzWAA-8" value="" style="endArrow=none;dashed=1;html=1;rounded=0;entryX=0.5;entryY=1;entryDx=0;entryDy=0;startArrow=none;" edge="1" parent="1" source="mYvr4c-KAgRMB02QzWAA-9" target="mYvr4c-KAgRMB02QzWAA-7">
          <mxGeometry width="50" height="50" relative="1" as="geometry">
            <mxPoint x="550" y="605.5172413793103" as="sourcePoint" />
            <mxPoint x="550" y="170" as="targetPoint" />
          </mxGeometry>
        </mxCell>
        <mxCell id="mYvr4c-KAgRMB02QzWAA-9" value="" style="rounded=1;whiteSpace=wrap;html=1;" vertex="1" parent="1">
          <mxGeometry x="535" y="170" width="30" height="60" as="geometry" />
        </mxCell>
        <mxCell id="mYvr4c-KAgRMB02QzWAA-10" value="" style="endArrow=none;dashed=1;html=1;rounded=0;entryX=0.5;entryY=1;entryDx=0;entryDy=0;" edge="1" parent="1" target="mYvr4c-KAgRMB02QzWAA-9">
          <mxGeometry width="50" height="50" relative="1" as="geometry">
            <mxPoint x="550" y="340" as="sourcePoint" />
            <mxPoint x="550.0000000000001" y="100" as="targetPoint" />
          </mxGeometry>
        </mxCell>
        <mxCell id="mYvr4c-KAgRMB02QzWAA-11" value="" style="endArrow=classic;html=1;rounded=0;entryX=0;entryY=0;entryDx=0;entryDy=0;exitX=1.041;exitY=0.016;exitDx=0;exitDy=0;exitPerimeter=0;" edge="1" parent="1" source="mYvr4c-KAgRMB02QzWAA-6" target="mYvr4c-KAgRMB02QzWAA-9">
          <mxGeometry width="50" height="50" relative="1" as="geometry">
            <mxPoint x="360" y="170" as="sourcePoint" />
            <mxPoint x="440" y="170" as="targetPoint" />
          </mxGeometry>
        </mxCell>
        <mxCell id="mYvr4c-KAgRMB02QzWAA-13" value="Nyalakan kamera" style="edgeLabel;html=1;align=center;verticalAlign=middle;resizable=0;points=[];" vertex="1" connectable="0" parent="mYvr4c-KAgRMB02QzWAA-11">
          <mxGeometry x="-0.1347" y="1" relative="1" as="geometry">
            <mxPoint as="offset" />
          </mxGeometry>
        </mxCell>
        <mxCell id="mYvr4c-KAgRMB02QzWAA-12" value="" style="endArrow=none;dashed=1;html=1;rounded=0;startArrow=classic;startFill=1;entryX=0;entryY=1;entryDx=0;entryDy=0;" edge="1" parent="1" target="mYvr4c-KAgRMB02QzWAA-9">
          <mxGeometry width="50" height="50" relative="1" as="geometry">
            <mxPoint x="360" y="230" as="sourcePoint" />
            <mxPoint x="515.21" y="280.4699999999999" as="targetPoint" />
          </mxGeometry>
        </mxCell>
        <mxCell id="mYvr4c-KAgRMB02QzWAA-15" value="" style="endArrow=classic;html=1;rounded=0;" edge="1" parent="1">
          <mxGeometry width="50" height="50" relative="1" as="geometry">
            <mxPoint x="320" y="300" as="sourcePoint" />
            <mxPoint x="80" y="300" as="targetPoint" />
          </mxGeometry>
        </mxCell>
        <mxCell id="mYvr4c-KAgRMB02QzWAA-16" value="Minta gambar barcode" style="edgeLabel;html=1;align=center;verticalAlign=middle;resizable=0;points=[];" vertex="1" connectable="0" parent="mYvr4c-KAgRMB02QzWAA-15">
          <mxGeometry x="0.1807" y="1" relative="1" as="geometry">
            <mxPoint x="21" y="-1" as="offset" />
          </mxGeometry>
        </mxCell>
        <mxCell id="mYvr4c-KAgRMB02QzWAA-17" value="" style="endArrow=classic;dashed=1;html=1;rounded=0;endFill=1;" edge="1" parent="1">
          <mxGeometry width="50" height="50" relative="1" as="geometry">
            <mxPoint x="80" y="340" as="sourcePoint" />
            <mxPoint x="320" y="340" as="targetPoint" />
          </mxGeometry>
        </mxCell>
        <mxCell id="Hwy8nERK88tXvUXuoPOE-2" value="" style="endArrow=classic;html=1;rounded=0;entryX=1.07;entryY=0.073;entryDx=0;entryDy=0;entryPerimeter=0;" edge="1" parent="1" target="Hwy8nERK88tXvUXuoPOE-1">
          <mxGeometry width="50" height="50" relative="1" as="geometry">
            <mxPoint x="355" y="351" as="sourcePoint" />
            <mxPoint x="390" y="380" as="targetPoint" />
            <Array as="points">
              <mxPoint x="420" y="351" />
              <mxPoint x="420" y="370" />
            </Array>
          </mxGeometry>
        </mxCell>
        <mxCell id="Hwy8nERK88tXvUXuoPOE-3" value="System mengekstrak informasi dari barcode" style="text;html=1;align=center;verticalAlign=middle;resizable=0;points=[];autosize=1;strokeColor=none;fillColor=none;" vertex="1" parent="1">
          <mxGeometry x="370" y="390" width="260" height="20" as="geometry" />
        </mxCell>
        <mxCell id="Hwy8nERK88tXvUXuoPOE-7" value="" style="endArrow=none;html=1;rounded=0;dashed=1;startArrow=classic;startFill=1;" edge="1" parent="1">
          <mxGeometry width="50" height="50" relative="1" as="geometry">
            <mxPoint x="80" y="450" as="sourcePoint" />
            <mxPoint x="320" y="450" as="targetPoint" />
          </mxGeometry>
        </mxCell>
        <mxCell id="Hwy8nERK88tXvUXuoPOE-8" value="Menampikan informasi gedung" style="edgeLabel;html=1;align=center;verticalAlign=middle;resizable=0;points=[];" vertex="1" connectable="0" parent="Hwy8nERK88tXvUXuoPOE-7">
          <mxGeometry x="-0.4454" y="-2" relative="1" as="geometry">
            <mxPoint x="38" y="-2" as="offset" />
          </mxGeometry>
        </mxCell>
        <mxCell id="Hwy8nERK88tXvUXuoPOE-9" value="loop" style="shape=umlFrame;whiteSpace=wrap;html=1;width=40;height=30;" vertex="1" parent="1">
          <mxGeometry x="30" y="250" width="400" height="270" as="geometry" />
        </mxCell>
        <mxCell id="Hwy8nERK88tXvUXuoPOE-13" value="[selama pengunjung masih gagal checkin]" style="text;html=1;strokeColor=none;fillColor=none;align=center;verticalAlign=middle;whiteSpace=wrap;rounded=0;" vertex="1" parent="1">
          <mxGeometry x="85" y="260" width="240" height="10" as="geometry" />
        </mxCell>
        <mxCell id="Hwy8nERK88tXvUXuoPOE-19" value="" style="endArrow=classic;dashed=1;html=1;rounded=0;endFill=1;" edge="1" parent="1">
          <mxGeometry width="50" height="50" relative="1" as="geometry">
            <mxPoint x="85" y="536" as="sourcePoint" />
            <mxPoint x="325" y="536" as="targetPoint" />
          </mxGeometry>
        </mxCell>
        <mxCell id="Hwy8nERK88tXvUXuoPOE-20" value="Check In" style="edgeLabel;html=1;align=center;verticalAlign=middle;resizable=0;points=[];" vertex="1" connectable="0" parent="Hwy8nERK88tXvUXuoPOE-19">
          <mxGeometry x="-0.2667" y="-1" relative="1" as="geometry">
            <mxPoint x="27" y="-1" as="offset" />
          </mxGeometry>
        </mxCell>
        <mxCell id="Hwy8nERK88tXvUXuoPOE-21" value="" style="endArrow=classic;html=1;rounded=0;entryX=1.07;entryY=0.073;entryDx=0;entryDy=0;entryPerimeter=0;" edge="1" parent="1" target="Hwy8nERK88tXvUXuoPOE-22">
          <mxGeometry width="50" height="50" relative="1" as="geometry">
            <mxPoint x="355" y="560" as="sourcePoint" />
            <mxPoint x="390" y="589" as="targetPoint" />
            <Array as="points">
              <mxPoint x="420" y="560" />
              <mxPoint x="420" y="579" />
            </Array>
          </mxGeometry>
        </mxCell>
        <mxCell id="Hwy8nERK88tXvUXuoPOE-23" value="System menyimpan data" style="text;html=1;strokeColor=none;fillColor=none;align=center;verticalAlign=middle;whiteSpace=wrap;rounded=0;" vertex="1" parent="1">
          <mxGeometry x="380" y="600" width="146" height="30" as="geometry" />
        </mxCell>
        <mxCell id="Hwy8nERK88tXvUXuoPOE-25" value="alt" style="shape=umlFrame;whiteSpace=wrap;html=1;width=40;height=30;" vertex="1" parent="1">
          <mxGeometry x="30" y="550" width="400" height="156" as="geometry" />
        </mxCell>
        <mxCell id="Hwy8nERK88tXvUXuoPOE-27" value="" style="endArrow=none;dashed=1;html=1;rounded=0;entryX=-0.004;entryY=0.5;entryDx=0;entryDy=0;entryPerimeter=0;exitX=1;exitY=0.5;exitDx=0;exitDy=0;exitPerimeter=0;" edge="1" parent="1" source="Hwy8nERK88tXvUXuoPOE-25" target="Hwy8nERK88tXvUXuoPOE-25">
          <mxGeometry width="50" height="50" relative="1" as="geometry">
            <mxPoint x="61.120000000000005" y="370" as="sourcePoint" />
            <mxPoint x="51.120000000000005" y="350" as="targetPoint" />
          </mxGeometry>
        </mxCell>
        <mxCell id="mYvr4c-KAgRMB02QzWAA-6" value="" style="rounded=1;whiteSpace=wrap;html=1;" vertex="1" parent="1">
          <mxGeometry x="325" y="160" width="30" height="545" as="geometry" />
        </mxCell>
        <mxCell id="Hwy8nERK88tXvUXuoPOE-22" value="" style="rounded=1;whiteSpace=wrap;html=1;" vertex="1" parent="1">
          <mxGeometry x="340" y="589" width="30" height="116" as="geometry" />
        </mxCell>
        <mxCell id="Hwy8nERK88tXvUXuoPOE-1" value="" style="rounded=1;whiteSpace=wrap;html=1;" vertex="1" parent="1">
          <mxGeometry x="340" y="375" width="30" height="70" as="geometry" />
        </mxCell>
        <mxCell id="Hwy8nERK88tXvUXuoPOE-28" value="[berhasil menyimpan data]" style="text;html=1;strokeColor=none;fillColor=none;align=center;verticalAlign=middle;whiteSpace=wrap;rounded=0;" vertex="1" parent="1">
          <mxGeometry x="85" y="550" width="150" height="30" as="geometry" />
        </mxCell>
        <mxCell id="Hwy8nERK88tXvUXuoPOE-30" value="" style="endArrow=none;dashed=1;html=1;rounded=0;startArrow=classic;startFill=1;" edge="1" parent="1">
          <mxGeometry width="50" height="50" relative="1" as="geometry">
            <mxPoint x="80" y="600" as="sourcePoint" />
            <mxPoint x="320" y="600" as="targetPoint" />
          </mxGeometry>
        </mxCell>
        <mxCell id="Hwy8nERK88tXvUXuoPOE-31" value="&lt;div&gt;return string &quot;Selamat datang&quot;&lt;/div&gt;&lt;div&gt;dan informasi pengunjung&lt;br&gt;&lt;/div&gt;" style="edgeLabel;html=1;align=center;verticalAlign=middle;resizable=0;points=[];" vertex="1" connectable="0" parent="Hwy8nERK88tXvUXuoPOE-30">
          <mxGeometry x="-0.0939" relative="1" as="geometry">
            <mxPoint x="9" as="offset" />
          </mxGeometry>
        </mxCell>
        <mxCell id="Hwy8nERK88tXvUXuoPOE-32" value="[gagal menyimpan data]" style="text;html=1;strokeColor=none;fillColor=none;align=center;verticalAlign=middle;whiteSpace=wrap;rounded=0;" vertex="1" parent="1">
          <mxGeometry x="85" y="630" width="135" height="30" as="geometry" />
        </mxCell>
        <mxCell id="Hwy8nERK88tXvUXuoPOE-39" value="" style="endArrow=none;html=1;rounded=0;exitX=0.146;exitY=0.753;exitDx=0;exitDy=0;exitPerimeter=0;dashed=1;startArrow=classic;startFill=1;" edge="1" parent="1" source="Hwy8nERK88tXvUXuoPOE-25">
          <mxGeometry width="50" height="50" relative="1" as="geometry">
            <mxPoint x="150" y="820" as="sourcePoint" />
            <mxPoint x="320" y="670" as="targetPoint" />
          </mxGeometry>
        </mxCell>
        <mxCell id="Hwy8nERK88tXvUXuoPOE-40" value="exit system" style="edgeLabel;html=1;align=center;verticalAlign=middle;resizable=0;points=[];" vertex="1" connectable="0" parent="Hwy8nERK88tXvUXuoPOE-39">
          <mxGeometry x="-0.141" relative="1" as="geometry">
            <mxPoint as="offset" />
          </mxGeometry>
        </mxCell>
        <mxCell id="Hwy8nERK88tXvUXuoPOE-41" value="exit system" style="edgeLabel;html=1;align=center;verticalAlign=middle;resizable=0;points=[];" vertex="1" connectable="0" parent="Hwy8nERK88tXvUXuoPOE-39">
          <mxGeometry x="-0.141" relative="1" as="geometry">
            <mxPoint as="offset" />
          </mxGeometry>
        </mxCell>
      </root>
    </mxGraphModel>
  </diagram>
</mxfile>
